# xmcd
#
# Track frame offsets: 
#        150
#        18657
#        37121
#        53472
#        71047
#        84936
#        98633
#        114617
#        129101
#        145560
#        160149
#        170879
#        193644
#        208082
#        224857
#        240244
#        254530
#        269279
#        286050
#
# Disc length: 3959 seconds
#
# Revision: 0
# Processed by: cddbd v1.5.1PL0 Copyright (c) Steve Scherf et al.
# Submitted via: ExactAudioCopy v0.95a5
#
DISCID=130f7513
DTITLE=张明敏 - 我的中国心
DYEAR=2001
DGENRE=Beat
TTITLE0=我是中国人
TTITLE1=蒙尘的巨龙
TTITLE2=乡间小路
TTITLE3=浪迹天涯
TTITLE4=故乡的风
TTITLE5=问白云
TTITLE6=青海青
TTITLE7=送你一把泥土
TTITLE8=冬梅
TTITLE9=冬恋
TTITLE10=年节时景
TTITLE11=龙的故乡
TTITLE12=又见柳叶青
TTITLE13=我们拥有一个名字中国
TTITLE14=思念总在分手后
TTITLE15=登上高峰
TTITLE16=中华之爱
TTITLE17=南寻旧日梦
TTITLE18=龙船调
EXTD=
EXTT0=
EXTT1=
EXTT2=
EXTT3=
EXTT4=
EXTT5=
EXTT6=
EXTT7=
EXTT8=
EXTT9=
EXTT10=
EXTT11=
EXTT12=
EXTT13=
EXTT14=
EXTT15=
EXTT16=
EXTT17=
EXTT18=
PLAYORDER=
